<?xml version="1.0" encoding="iso-8859-1"?>
<!-- Generator: Adobe Illustrator 16.0.0, SVG Export Plug-In . SVG Version: 6.00 Build 0)  -->
<!DOCTYPE svg PUBLIC "-//W3C//DTD SVG 1.1//EN" "http://www.w3.org/Graphics/SVG/1.1/DTD/svg11.dtd">
<svg version="1.1" id="Capa_1" xmlns="http://www.w3.org/2000/svg" xmlns:xlink="http://www.w3.org/1999/xlink" x="0px" y="0px"
	 width="137.218px" height="137.218px" viewBox="0 0 137.218 137.218" style="enable-background:new 0 0 137.218 137.218;"
	 xml:space="preserve">
<g>
	<g>
		<path d="M128.942,77.41l0.87-0.574c1.693-1.171,2.091-3.483,0.919-5.165c-1.182-1.697-3.507-2.08-5.165-0.925
			c-58.011,40.558-100.239,1.996-102.013,0.339c-1.497-1.401-3.856-1.33-5.25,0.158c-1.401,1.494-1.333,3.831,0.149,5.237
			c0.08,0.076,1.401,1.285,3.812,3.074l-7.431,12.255c-1.06,1.748-0.504,4.03,1.245,5.099c0.598,0.36,1.277,0.541,1.934,0.541
			c1.249,0,2.465-0.635,3.172-1.778l7.266-11.973c4.074,2.48,9.298,5.188,15.522,7.476l-3.581,11.972
			c-0.593,1.971,0.516,4.027,2.475,4.613l1.068,0.158c1.583,0,3.063-1.04,3.545-2.649l3.546-11.808
			c5.745,1.571,12.172,2.632,19.108,2.884v11.858c0,2.052,1.657,3.709,3.709,3.709c2.05,0,3.708-1.657,3.708-3.709V96.278
			c6.052-0.332,12.466-1.373,19.163-3.283l4.565,12.038c0.569,1.483,1.979,2.391,3.468,2.391l1.312-0.234
			c1.915-0.728,2.886-2.867,2.158-4.781l-4.445-11.729c6.098-2.265,12.401-5.247,18.911-9.203l6.009,8.021
			c0.732,0.969,1.849,1.489,2.965,1.489c0.778,0,1.555-0.236,2.222-0.745c1.644-1.23,1.976-3.555,0.752-5.192L128.942,77.41z"/>
		<path d="M136.987,48.4c0,0-1.479-2.148-4.603-5.015c-1.527-1.513-3.53-3.037-5.871-4.802c-2.385-1.587-5.093-3.469-8.23-5.062
			c-3.128-1.658-6.599-3.242-10.384-4.539c-3.76-1.483-7.901-2.353-12.215-3.136c-4.334-0.545-8.909-0.646-13.521-0.443
			c-4.628,0.391-9.254,0.396-13.917,0.962c-4.636,0.389-9.247,0.812-13.746,1.705c-2.253,0.392-4.487,0.706-6.662,1.188
			c-2.157,0.594-4.294,1.182-6.39,1.759c-4.196,1.043-8.15,2.381-11.799,3.951c-3.687,1.406-7.106,2.823-10.102,4.539
			c-3.032,1.601-5.811,2.969-8.2,4.342c-2.273,1.551-4.269,2.897-5.911,4.005c-3.201,2.241-5.031,3.524-5.031,3.524L0,52.647
			c0.186,0.588,0.818,0.897,1.412,0.7l0.119-0.044c0,0,2.073-0.706,5.72-1.945c1.784-0.625,3.962-1.389,6.446-2.268
			c2.526-0.722,5.451-1.357,8.557-2.131c3.064-0.884,6.511-1.406,10.148-1.847c1.781-0.259,3.619-0.539,5.501-0.817
			c1.9-0.203,3.856-0.252,5.812-0.395c1.966-0.123,3.95-0.245,5.96-0.369c2.023,0.011,4.074,0.028,6.13,0.047
			c4.083-0.121,8.264,0.236,12.413,0.6c8.292,0.582,16.336,3.31,23.89,4.571c7.588,1.261,14.882,1.614,21.316,1.967
			c6.457,0.184,12.017,0.307,16.094,0.107c4.057-0.147,6.55-0.399,6.55-0.399l0.612-0.235
			C137.249,49.79,137.393,48.989,136.987,48.4z"/>
	</g>
</g>
<g>
</g>
<g>
</g>
<g>
</g>
<g>
</g>
<g>
</g>
<g>
</g>
<g>
</g>
<g>
</g>
<g>
</g>
<g>
</g>
<g>
</g>
<g>
</g>
<g>
</g>
<g>
</g>
<g>
</g>
</svg>
